<svg width="17" height="18" viewBox="0 0 17 18" fill="none" xmlns="http://www.w3.org/2000/svg">
<path d="M11.7992 17.1504C11.4326 17.1504 11.0326 17.0171 10.5992 16.7504C10.1659 16.4504 9.86589 16.1337 9.69922 15.8004C9.69922 15.0337 9.79922 13.9837 9.99922 12.6504C10.1992 11.3171 10.4159 9.95039 10.6492 8.55039C10.9159 7.11706 11.1492 5.90039 11.3492 4.90039C10.7492 5.83372 10.0659 6.85039 9.29922 7.95039C8.53255 9.05039 7.74922 10.0837 6.94922 11.0504C6.14922 11.9837 5.33255 12.7671 4.49922 13.4004C3.69922 14.0004 2.94922 14.3004 2.24922 14.3004C1.54922 14.3004 0.999219 14.0671 0.599219 13.6004C0.199219 13.1004 -0.000781182 12.5337 -0.000781182 11.9004C-0.000781182 11.7337 0.0325521 11.5171 0.0992187 11.2504C0.399219 9.71706 0.982552 8.28372 1.84922 6.95039C2.74922 5.58372 3.76589 4.38372 4.89922 3.35039C6.06589 2.31706 7.21589 1.50039 8.34922 0.90039C9.48255 0.30039 10.4492 0.000389814 11.2492 0.000389814C11.8492 0.000389814 12.4159 0.133723 12.9492 0.400389C13.5159 0.633722 14.0492 1.03372 14.5492 1.60039C14.6492 1.70039 14.6992 1.81706 14.6992 1.95039C14.6992 2.11706 14.5992 2.28372 14.3992 2.45039C14.1659 3.25039 13.9159 4.21706 13.6492 5.35039C13.4159 6.45039 13.1826 7.60039 12.9492 8.80039C12.7492 9.96706 12.5826 11.0504 12.4492 12.0504C12.3159 13.0504 12.2492 13.8171 12.2492 14.3504C12.2492 14.7171 12.2992 14.9004 12.3992 14.9004C12.6659 14.9004 12.9992 14.6171 13.3992 14.0504C13.8326 13.4837 14.2492 12.8337 14.6492 12.1004C15.0492 11.3671 15.3992 10.7171 15.6992 10.1504C16.0326 9.58372 16.2326 9.30039 16.2992 9.30039C16.3992 9.30039 16.4492 9.43372 16.4492 9.70039C16.4492 10.2671 16.2659 10.9671 15.8992 11.8004C15.5326 12.6337 15.0826 13.4671 14.5492 14.3004C14.0492 15.1004 13.5326 15.7837 12.9992 16.3504C12.4992 16.8837 12.0992 17.1504 11.7992 17.1504ZM2.64922 12.4504C3.11589 12.4504 3.69922 12.1837 4.39922 11.6504C5.13255 11.1171 5.88255 10.4337 6.64922 9.60039C7.44922 8.76706 8.21589 7.88372 8.94922 6.95039C9.71589 6.01706 10.3659 5.13372 10.8992 4.30039C11.4659 3.43372 11.8659 2.73372 12.0992 2.20039C11.4326 2.20039 10.6659 2.45039 9.79922 2.95039C8.93255 3.41706 8.04922 4.03372 7.14922 4.80039C6.24922 5.53372 5.41589 6.35039 4.64922 7.25039C3.88255 8.11706 3.26589 8.96706 2.79922 9.80039C2.33255 10.6337 2.09922 11.3504 2.09922 11.9504C2.09922 12.2837 2.28255 12.4504 2.64922 12.4504Z" fill="black"/>
</svg>
