<svg width="36" height="45" viewBox="0 0 36 45" fill="none" xmlns="http://www.w3.org/2000/svg">
<path d="M7.95 44.2996C7.61667 44.2663 7.26667 44.0496 6.9 43.6496C6.53333 43.2829 6.23333 42.8663 6 42.3996C5.76667 41.9329 5.65 41.5996 5.65 41.3996C5.65 40.4663 6.61667 39.2496 8.55 37.7496C10.5167 36.2829 13.2833 34.8663 16.85 33.4996L27.3 29.4996C27.9667 28.3329 28.45 27.1496 28.75 25.9496C29.0833 24.7163 29.25 23.4996 29.25 22.2996C29.25 19.3329 28.5167 16.6663 27.05 14.2996C25.6167 11.9329 23.7 9.93294 21.3 8.29961C18.9 6.63294 16.2667 5.43294 13.4 4.69961C12.2 6.86628 11.1167 9.26628 10.15 11.8996C9.21667 14.5329 8.41667 17.2329 7.75 19.9996C7.08333 22.7663 6.56667 25.4496 6.2 28.0496C5.83333 30.6496 5.65 33.0163 5.65 35.1496C5.65 36.1829 5.68333 37.0496 5.75 37.7496C5.81667 38.4829 5.9 39.1829 6 39.8496C6 39.8829 5.98333 39.8996 5.95 39.8996C5.55 39.8996 5.21667 39.5996 4.95 38.9996C4.71667 38.4329 4.53333 37.7329 4.4 36.8996C4.3 36.0329 4.25 35.1996 4.25 34.3996C4.25 31.8996 4.46667 29.2329 4.9 26.3996C5.36667 23.5663 5.95 20.7496 6.65 17.9496C7.38333 15.1496 8.13333 12.5496 8.9 10.1496C9.66667 7.74961 10.35 5.74961 10.95 4.14961C10.2833 4.04961 9.6 3.96627 8.9 3.89961C8.23333 3.83294 7.56667 3.79961 6.9 3.79961C5.46667 3.79961 4.15 3.89961 2.95 4.09961C1.78333 4.26627 0.916667 4.43294 0.35 4.59961C0.116667 4.56627 -1.76951e-08 4.46628 -1.76951e-08 4.29961C-1.76951e-08 3.99961 0.5 3.61628 1.5 3.14961C2.53333 2.68294 3.71667 2.28294 5.05 1.94961C6.81667 1.48294 8.58333 1.24961 10.35 1.24961C10.65 1.24961 10.95 1.26627 11.25 1.29961C11.55 1.29961 11.85 1.31628 12.15 1.34961C12.2167 1.21627 12.2667 1.11627 12.3 1.04961C12.3667 0.949608 12.4167 0.866275 12.45 0.799609C12.75 0.266275 13.05 -0.000392556 13.35 -0.000392556C13.55 -0.000392556 13.7 0.149607 13.8 0.449608C13.9 0.749608 13.9667 1.11627 14 1.54961C16.5 1.94961 18.9 2.73294 21.2 3.89961C23.5 5.06628 25.55 6.51628 27.35 8.24961C29.15 9.98294 30.5667 11.9329 31.6 14.0996C32.6667 16.2663 33.2 18.5496 33.2 20.9496C33.2 22.0829 33.0667 23.2329 32.8 24.3996C32.5667 25.5663 32.1667 26.7329 31.6 27.8996C32.8 27.5329 33.6 27.2496 34 27.0496C34.4 26.8163 34.7167 26.6996 34.95 26.6996C35.05 26.6996 35.1 26.7329 35.1 26.7996C35.1 26.8663 34.95 27.0163 34.65 27.2496C34.35 27.4829 34 27.7329 33.6 27.9996C33.2 28.2329 32.85 28.4163 32.55 28.5496L30.9 29.2496C30.3 30.2829 29.6 31.3329 28.8 32.3996C28 33.4663 27.0667 34.4996 26 35.4996C24.7 36.7329 23.2333 37.8663 21.6 38.8996C20 39.9663 18.35 40.8829 16.65 41.6496C14.9833 42.4163 13.3833 43.0329 11.85 43.4996C10.35 43.9663 9.05 44.2329 7.95 44.2996ZM7.6 41.4496C9.3 40.9829 10.8 40.5329 12.1 40.0996C13.4333 39.6996 14.65 39.2496 15.75 38.7496C16.8833 38.2496 18 37.6663 19.1 36.9996C20.2 36.2996 21.4 35.4663 22.7 34.4996C24.0667 33.4996 25.2167 32.3996 26.15 31.1996C24.7167 31.7663 23.2333 32.3663 21.7 32.9996C20.2 33.5996 18.6667 34.1996 17.1 34.7996C16.2333 35.1329 15.25 35.6163 14.15 36.2496C13.0833 36.8496 12.05 37.4996 11.05 38.1996C10.05 38.8996 9.21667 39.5329 8.55 40.0996C7.91667 40.6996 7.6 41.1496 7.6 41.4496Z" fill="black"/>
</svg>
