<svg width="13" height="22" viewBox="0 0 13 22" fill="none" xmlns="http://www.w3.org/2000/svg">
<path d="M4.19922 21.2C3.06589 21.2 2.18255 20.8333 1.54922 20.1C0.949219 19.3667 0.532552 18.4333 0.299219 17.3C0.0992189 16.1333 -0.000781164 14.9667 -0.000781164 13.8C-0.000781164 13 0.0325522 12.25 0.0992189 11.55C0.165886 10.8167 0.232552 10.1833 0.299219 9.65C0.465886 8.28333 0.682552 6.96667 0.949219 5.7C1.21589 4.43333 1.46589 3.35 1.69922 2.45C1.96589 1.55 2.13255 0.966666 2.19922 0.699999C2.33255 0.233332 2.58255 -1.37091e-06 2.94922 -1.37091e-06C3.31589 -1.37091e-06 3.73255 0.249999 4.19922 0.749999C4.66589 1.21667 4.99922 1.6 5.19922 1.9C5.96589 2.13333 6.71589 2.41667 7.44922 2.75C8.18255 3.05 8.78255 3.38333 9.24922 3.75C9.74922 4.11667 9.99922 4.51667 9.99922 4.95C9.99922 5.78333 9.64922 6.61667 8.94922 7.45C8.24922 8.28333 7.36589 9.05 6.29922 9.75C5.23255 10.45 4.14922 11.05 3.04922 11.55C2.94922 12.35 2.89922 13.15 2.89922 13.95C2.89922 15.2833 3.06589 16.45 3.39922 17.45C3.73255 18.45 4.29922 18.95 5.09922 18.95C5.79922 18.95 6.46589 18.7 7.09922 18.2C7.76589 17.7 8.38255 17.0667 8.94922 16.3C9.51589 15.5333 10.0159 14.7667 10.4492 14C10.9159 13.2 11.2659 12.5333 11.4992 12C11.5659 11.8 11.7159 11.7 11.9492 11.7C12.0826 11.7 12.1492 11.85 12.1492 12.15C12.1492 12.4167 11.9492 12.9833 11.5492 13.85C11.1492 14.65 10.7326 15.4167 10.2992 16.15C9.89922 16.85 9.49922 17.4667 9.09922 18C8.53255 18.7333 7.83255 19.45 6.99922 20.15C6.19922 20.85 5.26589 21.2 4.19922 21.2ZM3.19922 10.15C4.36589 9.51667 5.39922 8.76667 6.29922 7.9C7.23255 7 7.69922 6.03333 7.69922 5C7.69922 4.63333 7.41589 4.26667 6.84922 3.9C6.31589 3.5 5.68255 3.16667 4.94922 2.9C4.54922 3.96667 4.19922 5.1 3.89922 6.3C3.63255 7.5 3.39922 8.78333 3.19922 10.15Z" fill="black"/>
</svg>
