<svg width="16" height="40" viewBox="0 0 16 40" fill="none" xmlns="http://www.w3.org/2000/svg">
<path d="M2.59844 39.7504C2.03177 39.7504 1.5651 39.4004 1.19844 38.7004C0.865104 38.0004 0.615104 37.1171 0.448438 36.0504C0.281771 34.9504 0.165104 33.7837 0.0984376 32.5504C0.0317709 31.2837 -0.00156245 30.1004 -0.00156245 29.0004C-0.00156245 26.7671 0.0817709 24.4671 0.248438 22.1004C0.448438 19.7337 0.698438 17.4504 0.998438 15.2504C1.29844 13.0171 1.6151 10.9837 1.94844 9.15039C2.28177 7.31706 2.58177 5.78372 2.84844 4.55039C3.14844 3.28372 3.38177 2.45039 3.54844 2.05039C3.78177 1.48372 3.9651 1.00039 4.09844 0.600388C4.2651 0.200389 4.5151 0.000389576 4.84844 0.000389576C5.38177 0.000389576 5.89844 0.217056 6.39844 0.65039C6.93177 1.08372 7.19844 1.48372 7.19844 1.85039V1.95039C7.39844 1.68372 7.68177 1.55039 8.04844 1.55039C8.58177 1.55039 8.99844 1.81705 9.29844 2.35039C9.63177 2.88372 9.8651 3.50039 9.99844 4.20039C10.1651 4.86706 10.2484 5.41706 10.2484 5.85039C10.2484 7.15039 9.98177 8.60039 9.44844 10.2004C8.9151 11.7671 8.23177 13.3671 7.39844 15.0004C6.5651 16.6004 5.68177 18.1504 4.74844 19.6504C3.8151 21.1171 2.94844 22.4171 2.14844 23.5504C2.0151 24.8837 1.89844 26.2337 1.79844 27.6004C1.69844 28.9671 1.64844 30.3337 1.64844 31.7004C1.64844 32.4337 1.6651 33.1337 1.69844 33.8004C1.7651 34.4671 1.83177 35.1004 1.89844 35.7004C2.0651 34.6671 2.29844 33.5004 2.59844 32.2004C2.89844 30.9004 3.2151 29.6171 3.54844 28.3504C3.88177 27.0504 4.19844 25.8837 4.49844 24.8504C4.83177 23.8171 5.09844 23.0671 5.29844 22.6004C5.63177 21.8004 6.0651 21.2337 6.59844 20.9004C7.1651 20.5671 7.69844 20.4004 8.19844 20.4004C8.39844 20.4004 8.5651 20.6837 8.69844 21.2504C8.83177 21.8171 8.93177 22.5337 8.99844 23.4004C9.09844 24.2671 9.18177 25.1671 9.24844 26.1004C9.3151 27.0004 9.3651 27.7837 9.39844 28.4504C9.4651 29.6504 9.6151 30.5004 9.84844 31.0004C10.0818 31.5004 10.3318 31.8004 10.5984 31.9004C10.8651 32.0004 11.0818 32.0671 11.2484 32.1004C11.5484 32.1004 11.8818 31.8337 12.2484 31.3004C12.6484 30.7337 13.0318 30.0837 13.3984 29.3504C13.7984 28.6171 14.1651 27.9837 14.4984 27.4504C14.8318 26.8837 15.0984 26.6004 15.2984 26.6004C15.3984 26.6004 15.4484 26.6837 15.4484 26.8504C15.4484 26.9837 15.3984 27.2004 15.2984 27.5004C14.2318 30.0337 13.2984 31.9337 12.4984 33.2004C11.6984 34.4671 10.8484 35.1004 9.94844 35.1004C9.21511 35.1004 8.68177 34.7837 8.34844 34.1504C7.84844 33.2837 7.49844 32.3337 7.29844 31.3004C7.09844 30.2337 6.93177 29.1504 6.79844 28.0504C6.69844 26.9504 6.5151 25.9171 6.24844 24.9504C6.2151 24.7504 6.13177 24.6504 5.99844 24.6504C5.89844 24.6504 5.79844 24.7504 5.69844 24.9504C5.63177 25.1504 5.53177 25.4004 5.39844 25.7004C5.29844 25.9337 5.09844 26.5504 4.79844 27.5504C4.53177 28.5171 4.23177 29.7004 3.89844 31.1004C3.5651 32.4671 3.28177 33.9171 3.04844 35.4504C2.8151 36.9504 2.69844 38.3504 2.69844 39.6504C2.69844 39.7171 2.6651 39.7504 2.59844 39.7504ZM2.39844 21.7504C3.39844 20.1171 4.38177 18.3837 5.34844 16.5504C6.34844 14.6837 7.18177 12.8504 7.84844 11.0504C8.5151 9.25039 8.84844 7.61706 8.84844 6.15039C8.84844 5.38372 8.74844 4.70039 8.54844 4.10039C8.34844 3.46706 7.98177 2.93372 7.44844 2.50039C7.4151 2.43372 7.3651 2.38372 7.29844 2.35039C7.23177 2.31706 7.1651 2.28372 7.09844 2.25039C6.19844 4.91706 5.3151 7.93372 4.44844 11.3004C3.58177 14.6337 2.89844 18.1171 2.39844 21.7504Z" fill="black"/>
</svg>
