<svg width="37" height="42" viewBox="0 0 37 42" fill="none" xmlns="http://www.w3.org/2000/svg">
<path d="M22.0008 41.9996C20.5674 41.9996 19.0341 41.7996 17.4008 41.3996C15.7674 41.0329 14.1674 40.5163 12.6008 39.8496C11.0674 39.1496 9.68411 38.3663 8.45078 37.4996C7.25078 36.6329 6.35078 35.6996 5.75078 34.6996C5.48411 34.6996 5.18411 34.7163 4.85078 34.7496C4.51745 34.7829 4.16745 34.7996 3.80078 34.7996C3.40078 34.7996 2.90078 34.7329 2.30078 34.5996C1.70078 34.4663 1.16745 34.2329 0.700781 33.8996C0.234115 33.5663 0.000781259 33.1163 0.000781259 32.5496C0.000781259 32.2829 0.184115 32.0496 0.550781 31.8496C0.950781 31.6496 1.68411 31.5496 2.75078 31.5496C4.81745 31.5496 6.25078 32.1829 7.05078 33.4496C8.15078 33.5829 9.31745 33.6829 10.5508 33.7496C11.7841 33.8163 13.0508 33.8496 14.3508 33.8496C15.6841 33.8496 17.0174 33.8163 18.3508 33.7496C19.7174 33.6829 21.0674 33.5663 22.4008 33.3996C21.6674 32.2329 20.8341 31.0663 19.9008 29.8996C19.0008 28.7329 18.2841 27.7829 17.7508 27.0496C16.5174 25.3829 15.3008 23.6663 14.1008 21.8996C12.9008 20.0996 11.7508 18.0663 10.6508 15.7996C10.2174 14.9329 10.0008 14.0496 10.0008 13.1496C10.0008 11.8163 10.4174 10.5663 11.2508 9.39961C12.0841 8.19961 13.1341 7.09961 14.4008 6.09961C15.6674 5.09961 17.0008 4.23294 18.4008 3.49961C19.8341 2.73294 21.1174 2.09961 22.2508 1.59961C23.4508 1.09961 24.6674 0.716274 25.9008 0.449607C27.1341 0.149607 28.3174 -0.000392914 29.4508 -0.000392914C30.1174 -0.000392914 30.7508 0.0496074 31.3508 0.149608C32.1841 0.282942 32.9841 0.732942 33.7508 1.49961C34.5508 2.23294 35.2174 3.11627 35.7508 4.14961C36.2841 5.14961 36.5508 6.14961 36.5508 7.14961C36.5508 8.08294 36.3174 9.16627 35.8508 10.3996C35.4174 11.5996 34.8508 12.8329 34.1508 14.0996C33.4508 15.3329 32.7008 16.4996 31.9008 17.5996C31.1008 18.6663 30.3508 19.5329 29.6508 20.1996C28.9841 20.8663 28.4508 21.1996 28.0508 21.1996C27.4841 21.1996 26.9674 20.8996 26.5008 20.2996C26.0674 19.6996 25.8508 19.2329 25.8508 18.8996C25.8508 18.6996 25.9008 18.5829 26.0008 18.5496C26.9008 17.8829 27.8508 16.9829 28.8508 15.8496C29.8508 14.7163 30.7674 13.4996 31.6008 12.1996C32.4675 10.8663 33.1675 9.56627 33.7008 8.29961C34.2675 6.99961 34.5508 5.88294 34.5508 4.94961C34.5508 3.88294 34.1508 3.16627 33.3508 2.79961C32.5841 2.39961 31.6174 2.19961 30.4508 2.19961C29.3508 2.19961 28.1841 2.38294 26.9508 2.74961C25.7175 3.08294 24.6341 3.48294 23.7008 3.94961C20.6674 5.44961 18.3341 6.89961 16.7008 8.29961C15.0674 9.66627 13.9341 10.9496 13.3008 12.1496C12.7008 13.3496 12.4008 14.4496 12.4008 15.4496C12.4008 16.4829 12.9008 17.8663 13.9008 19.5996C14.9008 21.2996 16.6008 23.5996 19.0008 26.4996C19.9008 27.5996 20.8674 28.7163 21.9008 29.8496C22.9674 30.9496 23.9341 32.0163 24.8008 33.0496C26.3674 32.7829 27.8174 32.4496 29.1508 32.0496C30.5174 31.6496 31.7174 31.1829 32.7508 30.6496C32.7841 30.6163 32.8341 30.5996 32.9008 30.5996C33.0008 30.5996 33.0508 30.6496 33.0508 30.7496C33.0508 31.0163 32.9341 31.2163 32.7008 31.3496C31.9675 31.8829 30.9841 32.3663 29.7508 32.7996C28.5174 33.2329 27.1174 33.6163 25.5508 33.9496C26.2174 34.7496 26.7508 35.5163 27.1508 36.2496C27.5508 36.9496 27.7508 37.5829 27.7508 38.1496C27.7508 39.5163 27.2008 40.4996 26.1008 41.0996C25.0341 41.6996 23.6674 41.9996 22.0008 41.9996ZM19.5508 40.2496C20.8508 40.2496 21.9174 40.0163 22.7508 39.5496C23.6174 39.0829 24.0508 38.3663 24.0508 37.3996C24.0508 36.9996 23.9508 36.5496 23.7508 36.0496C23.5508 35.5163 23.2841 34.9663 22.9508 34.3996C19.8508 34.8663 16.6508 35.0996 13.3508 35.0996C11.4174 35.0996 9.56745 34.9996 7.80078 34.7996C8.60078 35.8663 9.65078 36.8163 10.9508 37.6496C12.2841 38.4829 13.7008 39.1329 15.2008 39.5996C16.7341 40.0329 18.1841 40.2496 19.5508 40.2496Z" fill="black"/>
</svg>
