<svg width="34" height="38" viewBox="0 0 34 38" fill="none" xmlns="http://www.w3.org/2000/svg">
<path d="M14.2516 37.8496C13.0849 37.8496 12.1349 37.4829 11.4016 36.7496C10.6682 35.9829 10.1016 34.9996 9.70156 33.7996C9.3349 32.5996 9.0849 31.3163 8.95156 29.9496C8.81823 28.5496 8.75156 27.2329 8.75156 25.9996C8.75156 25.2663 8.76823 24.5996 8.80156 23.9996C8.8349 23.3663 8.86823 22.8329 8.90156 22.3996C8.96823 21.1329 9.0849 19.7496 9.25156 18.2496C9.41823 16.7163 9.61823 15.1496 9.85156 13.5496C8.11823 13.8163 6.5349 14.0329 5.10156 14.1996C3.6349 14.3663 2.41823 14.4496 1.45156 14.4496C1.31823 14.4496 1.11823 14.2829 0.851562 13.9496C0.584895 13.6163 0.384895 13.2663 0.251562 12.8996C0.0848956 12.5329 0.068229 12.3663 0.201562 12.3996C0.534896 12.4329 0.851562 12.4663 1.15156 12.4996C1.45156 12.4996 1.76823 12.4996 2.10156 12.4996C3.10156 12.4996 4.21823 12.4329 5.45156 12.2996C6.65156 12.1663 8.20156 11.9996 10.1016 11.7996C10.3682 10.1329 10.6516 8.48294 10.9516 6.84961C11.2849 5.21627 11.6182 3.66627 11.9516 2.19961C12.1182 1.53294 12.2682 0.999607 12.4016 0.599608C12.5682 0.199608 12.8682 0.0329411 13.3016 0.0996089C13.7016 0.166275 14.1182 0.316275 14.5516 0.549609C14.9849 0.782941 15.2849 1.04961 15.4516 1.34961C16.1182 1.98294 16.6016 2.78294 16.9016 3.74961C17.2016 4.68294 17.3516 5.73294 17.3516 6.89961C17.3516 8.13294 17.2016 9.48294 16.9016 10.9496C18.7349 10.6829 20.6182 10.3663 22.5516 9.99961C24.5182 9.59961 26.4182 9.19961 28.2516 8.79961C30.1182 8.36627 31.8016 7.98294 33.3016 7.64961C33.5349 7.58294 33.5682 7.61628 33.4016 7.74961C33.2349 7.84961 33.0016 7.96627 32.7016 8.09961C32.4016 8.23294 32.1516 8.33294 31.9516 8.39961C29.8516 9.13294 27.4516 9.84961 24.7516 10.5496C22.0516 11.2496 19.3349 11.8663 16.6016 12.3996C16.0682 14.6329 15.3182 16.9496 14.3516 19.3496C13.3849 21.7163 12.3682 23.9996 11.3016 26.1996C11.3016 26.5329 11.2849 26.8663 11.2516 27.1996C11.2516 27.4996 11.2516 27.8163 11.2516 28.1496C11.2516 29.7829 11.3349 31.2496 11.5016 32.5496C11.7016 33.8163 12.0182 34.8496 12.4516 35.6496C12.7516 36.2163 13.0849 36.6163 13.4516 36.8496C13.8516 37.0496 14.2349 37.1496 14.6016 37.1496C14.9682 37.1496 15.3182 37.0829 15.6516 36.9496C15.9849 36.8163 16.2349 36.7163 16.4016 36.6496C16.7682 36.4829 17.0182 36.4163 17.1516 36.4496C17.2849 36.4829 17.2682 36.5829 17.1016 36.7496C17.0016 36.8829 16.7016 37.0996 16.2016 37.3996C15.7016 37.6996 15.0516 37.8496 14.2516 37.8496ZM13.3016 11.4496L14.0016 11.3496L15.7516 11.1496C15.9182 10.3829 16.0349 9.64961 16.1016 8.94961C16.2016 8.24961 16.2516 7.58294 16.2516 6.94961C16.2516 5.21627 15.9349 3.83294 15.3016 2.79961C14.9349 4.13294 14.5849 5.53294 14.2516 6.99961C13.9182 8.46627 13.6016 9.94961 13.3016 11.4496ZM11.4516 23.5996C12.2516 21.7663 13.0016 19.9163 13.7016 18.0496C14.4016 16.1829 14.9682 14.3829 15.4016 12.6496C14.9682 12.7163 14.5516 12.7829 14.1516 12.8496C13.7516 12.9163 13.3516 12.9829 12.9516 13.0496C12.6182 14.8496 12.3182 16.6496 12.0516 18.4496C11.8182 20.2163 11.6182 21.9329 11.4516 23.5996Z" fill="black"/>
</svg>
