<svg width="49" height="45" viewBox="0 0 49 45" fill="none" xmlns="http://www.w3.org/2000/svg">
<path d="M13.5 44.5492C12.5333 44.5492 11.7167 44.3659 11.05 43.9992C10.4167 43.6659 9.91667 43.3159 9.55 42.9492C9.18333 42.5826 8.96667 42.3492 8.9 42.2492C8.83333 42.1159 8.8 42.0326 8.8 41.9992C8.8 41.8326 8.9 41.7492 9.1 41.7492C9.3 41.7492 9.65 41.9159 10.15 42.2492C10.6833 42.6159 11.5333 42.7992 12.7 42.7992C13.2667 42.7992 13.85 42.6992 14.45 42.4992C15.05 42.3326 15.6 42.0326 16.1 41.5992C16.9667 40.7992 17.7333 39.5992 18.4 37.9992C19.0667 36.3659 19.65 34.4492 20.15 32.2492C20.6833 30.0492 21.1333 27.6659 21.5 25.0992C21.8667 22.5326 22.1667 19.8992 22.4 17.1992C22.6667 14.4992 22.8667 11.8492 23 9.24922C22.9333 9.21588 22.85 9.19922 22.75 9.19922C22.5167 9.79922 22.2833 10.4492 22.05 11.1492C21.8167 11.8492 21.65 12.1992 21.55 12.1992C21.5167 12.1992 21.5 12.0992 21.5 11.8992C21.5 11.6992 21.55 11.3659 21.65 10.8992C21.75 10.3992 21.8667 9.76588 22 8.99922C19.4667 8.43255 16.9333 7.83255 14.4 7.19922C11.9 6.53255 9.61667 5.89922 7.55 5.29922C7.85 5.59922 8.15 5.88255 8.45 6.14922C8.75 6.41588 8.9 6.59922 8.9 6.69922C8.9 6.73255 8.86667 6.74922 8.8 6.74922C8.43333 6.74922 7.9 6.64922 7.2 6.44922C6.53333 6.21588 5.78333 5.94922 4.95 5.64922C4.11667 5.31588 3.31667 4.99922 2.55 4.69922C1.81667 4.36588 1.2 4.08255 0.7 3.84922C0.233333 3.58255 -3.53903e-08 3.43255 -3.53903e-08 3.39922C-3.53903e-08 3.06588 0.116667 2.63255 0.35 2.09922C0.55 1.56588 0.833333 1.08255 1.2 0.649216C1.56667 0.215883 1.93333 -0.000784159 2.3 -0.000784159C2.33333 -0.000784159 2.36667 0.0158833 2.4 0.0492182C2.43333 0.0492182 2.46667 0.0492182 2.5 0.0492182C5.66667 1.08255 8.96667 2.14922 12.4 3.24922C15.8333 4.34922 19.2167 5.38255 22.55 6.34922L23.25 2.54922C23.3167 2.08255 23.6167 1.74922 24.15 1.54922C24.7167 1.34922 25.3167 1.24922 25.95 1.24922C26.6167 1.24922 27.0333 1.36588 27.2 1.59922C27.4 1.83255 27.5 2.21588 27.5 2.74922C27.5 2.91588 27.5 3.09922 27.5 3.29922C27.5 3.49922 27.4833 3.69922 27.45 3.89922L27.1 7.59922C30.3667 8.43255 33.3833 9.13255 36.15 9.69922C38.9167 10.2326 41.2 10.4992 43 10.4992C44.5667 10.4992 45.6167 10.2826 46.15 9.84922C46.7167 9.38255 47 8.74922 47 7.94922C47 6.88255 46.8 6.11588 46.4 5.64922C46 5.18255 45.8 4.88255 45.8 4.74922C45.8 4.71588 45.8167 4.69922 45.85 4.69922C45.95 4.69922 46.0667 4.74922 46.2 4.84922C46.3667 4.91588 46.6333 5.11588 47 5.44922C47.3667 5.74922 47.7 6.16588 48 6.69922C48.3333 7.19922 48.5 7.84922 48.5 8.64922C48.5 9.64922 48.2 10.4325 47.6 10.9992C47 11.5326 46.1833 11.9159 45.15 12.1492C44.15 12.3492 43.05 12.4492 41.85 12.4492C40.4167 12.4492 38.9333 12.3492 37.4 12.1492C35.9 11.9492 34.6167 11.7326 33.55 11.4992C32.5167 11.2992 31.4333 11.0826 30.3 10.8492C29.2 10.6159 28.05 10.3659 26.85 10.0992C26.5833 12.3659 26.2667 14.7159 25.9 17.1492C25.5333 19.5826 25.15 21.8992 24.75 24.0992C24.35 26.2659 23.9667 28.1326 23.6 29.6992C23.4 30.4659 23.1167 31.4659 22.75 32.6992C22.3833 33.9326 21.9167 35.2326 21.35 36.5992C20.7833 37.9659 20.1167 39.2492 19.35 40.4492C18.6167 41.6492 17.75 42.6326 16.75 43.3992C15.7833 44.1659 14.7 44.5492 13.5 44.5492Z" fill="black"/>
</svg>
