<svg width="17" height="19" viewBox="0 0 17 19" fill="none" xmlns="http://www.w3.org/2000/svg">
<path d="M5.44922 18.9008C4.38255 18.9008 3.64922 18.6508 3.24922 18.1508C2.84922 17.6508 2.64922 16.9841 2.64922 16.1508C2.64922 15.0841 2.69922 13.7174 2.79922 12.0508C2.89922 10.3841 2.94922 8.78411 2.94922 7.25078C2.94922 5.51745 2.84922 4.26745 2.64922 3.50078C2.44922 2.73411 2.06589 2.35078 1.49922 2.35078C1.36589 2.35078 1.21589 2.38411 1.04922 2.45078C0.882552 2.51745 0.715886 2.55078 0.549219 2.55078C0.182552 2.55078 -0.000781223 2.41745 -0.000781223 2.15078C-0.000781223 2.01745 0.215885 1.88411 0.649219 1.75078C1.08255 1.58411 1.56589 1.45078 2.09922 1.35078C2.66589 1.25078 3.14922 1.20078 3.54922 1.20078C4.18255 1.20078 4.64922 1.26745 4.94922 1.40078C5.28255 1.53411 5.49922 1.86745 5.59922 2.40078C5.73255 2.90078 5.79922 3.75078 5.79922 4.95078C5.79922 6.45078 5.71589 8.21745 5.54922 10.2508C5.41589 12.2841 5.24922 14.1341 5.04922 15.8008C5.24922 14.9341 5.64922 13.9008 6.24922 12.7008C6.84922 11.4674 7.53255 10.2008 8.29922 8.90078C9.09922 7.56745 9.88255 6.33411 10.6492 5.20078C11.4159 4.03411 12.0659 3.05078 12.5992 2.25078C13.1659 1.45078 13.4992 0.984114 13.5992 0.850781C14.0326 0.284113 14.5159 0.000779629 15.0492 0.000779629C15.5159 0.000779629 15.8992 0.15078 16.1992 0.45078C16.4992 0.717447 16.6492 0.934114 16.6492 1.10078C16.6159 1.33411 16.3492 1.65078 15.8492 2.05078C15.3826 2.41745 14.9159 2.73411 14.4492 3.00078C13.8826 3.30078 13.2326 3.86745 12.4992 4.70078C11.7992 5.50078 11.0659 6.45078 10.2992 7.55078C9.56589 8.65078 8.86589 9.81745 8.19922 11.0508C7.56589 12.2841 7.04922 13.4841 6.64922 14.6508C6.28255 15.8174 6.09922 16.8341 6.09922 17.7008C6.09922 17.8341 6.09922 17.9674 6.09922 18.1008C6.13255 18.2008 6.14922 18.3174 6.14922 18.4508C6.14922 18.7508 5.91589 18.9008 5.44922 18.9008Z" fill="black"/>
</svg>
