<svg width="300" height="48" viewBox="0 0 300 48" fill="none" xmlns="http://www.w3.org/2000/svg">
<path d="M18.4 47.4496C15.1333 47.4496 12.1333 46.9663 9.4 45.9996C6.7 45.0329 4.51667 43.6163 2.85 41.7496C1.18333 39.8496 0.266667 37.5163 0.1 34.7496C0.0333334 33.6163 0.216667 32.3663 0.65 30.9996C1.08333 29.6329 1.68333 28.2829 2.45 26.9496C3.25 25.5829 4.18333 24.3663 5.25 23.2996C6.35 22.1996 7.51667 21.3663 8.75 20.7996C8.85 20.7329 9 20.6829 9.2 20.6496C9.43333 20.6163 9.6 20.5996 9.7 20.5996C9.9 20.5996 10 20.6496 10 20.7496C10 20.9163 9.75 21.1829 9.25 21.5496C7.85 22.6496 6.7 23.9163 5.8 25.3496C4.86667 26.7829 4.16667 28.3163 3.7 29.9496C3.23333 31.5829 3 33.2329 3 34.8996C3 36.8663 3.41667 38.5663 4.25 39.9996C5.11667 41.3996 6.26667 42.5496 7.7 43.4496C9.13333 44.3829 10.7667 45.0663 12.6 45.4996C14.4333 45.9329 16.35 46.1496 18.35 46.1496C20.5833 46.1496 22.7833 45.8996 24.95 45.3996C27.15 44.8996 29.15 44.1829 30.95 43.2496C33.7167 41.7829 35.9 39.9663 37.5 37.7996C39.1333 35.6329 39.95 33.4829 39.95 31.3496C39.95 30.2163 39.7 29.1329 39.2 28.0996C38.7333 27.0663 37.9667 26.1329 36.9 25.2996C36.1 24.6663 35.1167 24.0663 33.95 23.4996C32.8167 22.9329 31.6 22.3829 30.3 21.8496C29.0333 21.3163 27.7833 20.7829 26.55 20.2496C25.3167 19.6829 24.2333 19.0829 23.3 18.4496C21.9667 17.5496 20.9833 16.5829 20.35 15.5496C19.75 14.5163 19.45 13.4829 19.45 12.4496C19.45 11.2163 19.8 10.0163 20.5 8.84961C21.2333 7.68294 22.2167 6.63294 23.45 5.69961C24.7167 4.73294 26.1333 3.98294 27.7 3.44961C29.0667 2.98294 30.55 2.61627 32.15 2.34961C33.7833 2.08294 35.3833 1.94961 36.95 1.94961C38.25 1.94961 39.4833 2.04961 40.65 2.24961C41.85 2.41627 42.9 2.73294 43.8 3.19961C44.9333 3.73294 45.8 4.44961 46.4 5.34961C47 6.21627 47.3 7.13294 47.3 8.09961C47.3 9.43294 46.7 10.5996 45.5 11.5996C45.0667 11.9329 44.5833 12.2496 44.05 12.5496C43.5167 12.8163 42.8833 13.0496 42.15 13.2496C42.0167 13.2829 41.8667 13.2996 41.7 13.2996C41.3 13.2996 41.1 13.1829 41.1 12.9496C41.1 12.8163 41.2 12.6829 41.4 12.5496C41.6333 12.3829 41.9667 12.2829 42.4 12.2496C43.4 12.1163 44.15 11.7329 44.65 11.0996C45.1833 10.4663 45.45 9.73294 45.45 8.89961C45.45 8.03294 45.15 7.18294 44.55 6.34961C43.9833 5.48294 43.1 4.76627 41.9 4.19961C40.7 3.59961 39.1667 3.29961 37.3 3.29961C36.2333 3.29961 35.05 3.41628 33.75 3.64961C32.4833 3.88294 31.1 4.26628 29.6 4.79961C27.7667 5.43294 26.2333 6.36627 25 7.59961C23.8 8.83294 23.2 10.1496 23.2 11.5496C23.2 12.4163 23.4833 13.2996 24.05 14.1996C24.65 15.0663 25.6 15.8996 26.9 16.6996C28 17.3663 29.25 18.0329 30.65 18.6996C32.05 19.3329 33.4667 19.9829 34.9 20.6496C36.3333 21.2829 37.6333 21.9663 38.8 22.6996C40.6333 23.8329 41.95 25.0496 42.75 26.3496C43.55 27.6496 43.95 28.9829 43.95 30.3496C43.95 31.9496 43.4667 33.5663 42.5 35.1996C41.5667 36.7996 40.3333 38.3163 38.8 39.7496C37.2667 41.1496 35.5833 42.3996 33.75 43.4996C31.6167 44.7663 29.2 45.7329 26.5 46.3996C23.8333 47.0996 21.1333 47.4496 18.4 47.4496ZM57.8391 42.9996C57.0724 42.9996 56.3891 42.7829 55.7891 42.3496C55.2224 41.9163 54.9391 41.0329 54.9391 39.6996C54.9391 39.1329 54.9724 38.5996 55.0391 38.0996C55.1391 37.5996 55.2557 37.0663 55.3891 36.4996C55.0891 36.9996 54.6724 37.6163 54.1391 38.3496C53.6057 39.0829 53.0057 39.7996 52.3391 40.4996C51.7057 41.1996 51.0391 41.7829 50.3391 42.2496C49.6724 42.7163 49.0391 42.9496 48.4391 42.9496C47.5724 42.9496 46.8724 42.5663 46.3391 41.7996C45.8057 40.9996 45.5391 39.9663 45.5391 38.6996C45.5391 37.3329 45.8557 35.8663 46.4891 34.2996C47.1224 32.7329 47.9891 31.2329 49.0891 29.7996C50.1891 28.3663 51.4557 27.1996 52.8891 26.2996C54.3224 25.3996 55.8224 24.9496 57.3891 24.9496C58.1557 24.9496 58.8891 25.0829 59.5891 25.3496C60.2891 25.5829 60.9057 25.9829 61.4391 26.5496C61.6724 26.7829 61.7891 27.0496 61.7891 27.3496C61.7891 27.5496 61.7057 27.7163 61.5391 27.8496C61.3724 27.9829 61.1557 28.0163 60.8891 27.9496C60.5224 26.7829 59.7391 26.1996 58.5391 26.1996C57.9724 26.1996 57.3224 26.3829 56.5891 26.7496C55.6891 27.2163 54.7224 27.9663 53.6891 28.9996C52.6891 29.9996 51.7391 31.1496 50.8391 32.4496C49.9724 33.7163 49.2557 34.9996 48.6891 36.2996C48.1224 37.5996 47.8391 38.7829 47.8391 39.8496C47.8391 40.9496 48.2557 41.4996 49.0891 41.4996C49.8224 41.4996 50.5724 41.1496 51.3391 40.4496C52.1391 39.7496 52.8891 38.8829 53.5891 37.8496C54.3224 36.7829 54.9891 35.7329 55.5891 34.6996C56.1891 33.6663 56.6557 32.8329 56.9891 32.1996C57.4891 31.2996 57.9557 30.5496 58.3891 29.9496C58.8224 29.3496 59.4391 29.0496 60.2391 29.0496C60.6057 29.0496 60.9724 29.0996 61.3391 29.1996C61.7057 29.2996 62.0891 29.3163 62.4891 29.2496C61.4891 30.2496 60.6057 31.4329 59.8391 32.7996C59.1057 34.1663 58.5391 35.5163 58.1391 36.8496C57.7391 38.1496 57.5391 39.2496 57.5391 40.1496C57.5391 41.1496 57.8724 41.6496 58.5391 41.6496C59.0724 41.6496 59.6391 41.3496 60.2391 40.7496C60.8724 40.1496 61.4724 39.3996 62.0391 38.4996C62.6391 37.5663 63.1891 36.6329 63.6891 35.6996C64.1891 34.7329 64.5891 33.8996 64.8891 33.1996C65.0557 33.1996 65.1891 33.2163 65.2891 33.2496C65.4224 33.2829 65.4891 33.4163 65.4891 33.6496C65.4557 33.7829 65.3891 33.9329 65.2891 34.0996C65.2224 34.2329 65.1057 34.4829 64.9391 34.8496C64.6724 35.3829 64.3057 36.0996 63.8391 36.9996C63.3724 37.8996 62.8224 38.8163 62.1891 39.7496C61.5557 40.6496 60.8724 41.4163 60.1391 42.0496C59.4057 42.6829 58.6391 42.9996 57.8391 42.9996ZM66.559 43.1996C65.5257 43.1996 64.809 42.9329 64.409 42.3996C64.009 41.8663 63.809 41.1829 63.809 40.3496C63.809 39.4829 63.959 38.4996 64.259 37.3996C64.559 36.2996 64.959 35.0663 65.459 33.6996C65.0923 33.6996 64.909 33.5329 64.909 33.1996C65.1757 32.5329 65.459 31.7829 65.759 30.9496C66.0923 30.0829 66.259 29.1163 66.259 28.0496C66.259 27.5163 66.1923 27.0663 66.059 26.6996C65.9257 26.3329 65.7257 26.1163 65.459 26.0496C65.459 26.0496 65.6257 26.0163 65.959 25.9496C66.3257 25.8829 66.709 25.8163 67.109 25.7496C67.509 25.6829 67.7757 25.6496 67.909 25.6496C68.109 25.6163 68.2923 25.5996 68.459 25.5996C68.6257 25.5663 68.7757 25.5496 68.909 25.5496C69.2423 25.5496 69.459 25.6829 69.559 25.9496C69.6923 26.2163 69.7423 26.7996 69.709 27.6996C69.6757 28.5329 69.509 29.5496 69.209 30.7496C68.909 31.9163 68.5923 32.9329 68.259 33.7996C67.8257 34.9329 67.4257 36.0829 67.059 37.2496C66.6923 38.4163 66.509 39.3829 66.509 40.1496C66.509 40.8163 66.6923 41.2496 67.059 41.4496C67.3257 41.5496 67.559 41.5996 67.759 41.5996C68.5257 41.5996 69.2757 41.2329 70.009 40.4996C70.7423 39.7663 71.4257 38.8829 72.059 37.8496C72.7257 36.7829 73.2757 35.7663 73.709 34.7996C73.509 34.0329 73.409 33.1163 73.409 32.0496C73.409 30.9163 73.5423 29.7663 73.809 28.5996C74.0757 27.4329 74.4923 26.4663 75.059 25.6996C75.6257 24.8996 76.359 24.4996 77.259 24.4996C77.8923 24.4996 78.209 24.7829 78.209 25.3496C78.209 25.4829 78.0423 26.0496 77.709 27.0496C77.409 28.0496 77.009 29.2329 76.509 30.5996C76.009 31.9663 75.4757 33.2829 74.909 34.5496C74.7757 34.8163 74.659 35.0829 74.559 35.3496C74.6923 35.9163 74.9423 36.3829 75.309 36.7496C75.6757 37.0829 76.1257 37.2496 76.659 37.2496C77.3257 37.2496 77.9423 36.9496 78.509 36.3496C79.109 35.7163 79.7257 34.6663 80.359 33.1996C80.759 33.1996 80.959 33.3496 80.959 33.6496C80.4257 34.9829 79.7757 36.0496 79.009 36.8496C78.2757 37.6496 77.4423 38.0496 76.509 38.0496C75.3757 38.0496 74.559 37.4663 74.059 36.2996C73.4923 37.4663 72.8257 38.5829 72.059 39.6496C71.2923 40.6829 70.4423 41.5329 69.509 42.1996C68.609 42.8663 67.6257 43.1996 66.559 43.1996ZM83.9387 43.0496C82.7053 43.0496 81.5887 42.6496 80.5887 41.8496C79.622 41.0496 79.1387 39.8329 79.1387 38.1996C79.1387 36.8329 79.4387 35.3829 80.0387 33.8496C80.672 32.3163 81.4887 30.8829 82.4887 29.5496C83.522 28.1829 84.6553 27.0829 85.8887 26.2496C87.1553 25.3829 88.422 24.9496 89.6887 24.9496C90.322 24.9496 90.9387 25.1329 91.5387 25.4996C92.1387 25.8663 92.4387 26.4996 92.4387 27.3996C92.4387 28.2329 92.122 29.1496 91.4887 30.1496C90.8553 31.1496 89.9553 32.0829 88.7887 32.9496C88.2887 33.3163 87.6553 33.6663 86.8887 33.9996C86.122 34.3329 85.3553 34.6163 84.5887 34.8496C83.822 35.0496 83.1887 35.1496 82.6887 35.1496C82.522 35.5496 82.3553 36.0829 82.1887 36.7496C82.0553 37.4163 81.9887 38.0996 81.9887 38.7996C81.9887 39.6329 82.1553 40.3829 82.4887 41.0496C82.822 41.7163 83.4387 42.0496 84.3387 42.0496C85.4387 42.0496 86.4553 41.7329 87.3887 41.0996C88.3553 40.4663 89.2053 39.6663 89.9387 38.6996C90.7053 37.7329 91.3553 36.7496 91.8887 35.7496C92.422 34.7496 92.8387 33.8996 93.1387 33.1996C93.5387 33.1996 93.7387 33.3496 93.7387 33.6496C93.3053 34.5829 92.8053 35.5996 92.2387 36.6996C91.7053 37.7996 91.0553 38.8329 90.2887 39.7996C89.5553 40.7329 88.6553 41.5163 87.5887 42.1496C86.5553 42.7496 85.3387 43.0496 83.9387 43.0496ZM83.0387 34.2496C83.5053 34.2496 84.2887 34.0829 85.3887 33.7496C86.4887 33.3829 87.4887 32.8163 88.3887 32.0496C89.2553 31.2829 89.922 30.4496 90.3887 29.5496C90.8553 28.6163 91.0887 27.8329 91.0887 27.1996C91.0887 26.4663 90.822 26.0996 90.2887 26.0996C89.8887 26.0996 89.3387 26.3663 88.6387 26.8996C87.9387 27.4329 87.072 28.3329 86.0387 29.5996C85.4053 30.3996 84.8053 31.2663 84.2387 32.1996C83.672 33.1329 83.272 33.8163 83.0387 34.2496ZM150.521 30.2996C148.088 36.4329 144.821 40.8496 140.721 43.5496C136.655 46.2829 131.488 47.6496 125.221 47.6496C123.188 47.6496 121.121 47.3496 119.021 46.7496C116.921 46.1829 114.988 45.2996 113.221 44.0996C111.455 42.9329 110.021 41.4663 108.921 39.6996C107.855 37.8996 107.321 35.7996 107.321 33.3996C107.321 31.0996 107.821 29.0329 108.821 27.1996C109.821 25.3329 111.271 23.8663 113.171 22.7996C113.671 22.4996 114.038 22.3496 114.271 22.3496C114.538 22.3496 114.705 22.3996 114.771 22.4996C114.838 22.5996 114.871 22.6996 114.871 22.7996C113.005 24.0329 111.655 25.4163 110.821 26.9496C109.988 28.4829 109.571 30.3829 109.571 32.6496C109.571 34.6829 109.988 36.5329 110.821 38.1996C111.655 39.8663 112.788 41.3163 114.221 42.5496C115.688 43.7496 117.355 44.6829 119.221 45.3496C121.121 46.0163 123.121 46.3496 125.221 46.3496C127.855 46.3496 130.271 45.8996 132.471 44.9996C134.705 44.1329 136.738 42.9496 138.571 41.4496C140.405 39.9163 142.055 38.1829 143.521 36.2496C145.021 34.3163 146.355 32.2996 147.521 30.1996C148.588 28.2663 149.605 26.2829 150.571 24.2496C151.538 22.2163 152.421 20.2996 153.221 18.4996C154.055 16.6996 154.788 15.1496 155.421 13.8496C156.055 12.5163 156.555 11.5996 156.921 11.0996C154.288 10.2996 151.755 9.68294 149.321 9.24961C146.921 8.78294 144.355 8.48294 141.621 8.34961C139.121 8.21627 136.888 8.49961 134.921 9.19961C132.988 9.89961 131.338 10.8496 129.971 12.0496C128.638 13.2163 127.605 14.4996 126.871 15.8996C126.171 17.2996 125.821 18.6496 125.821 19.9496C125.821 21.0829 126.105 22.0996 126.671 22.9996C127.271 23.8663 128.171 24.4996 129.371 24.8996C130.171 25.1329 130.955 25.2496 131.721 25.2496C132.921 25.2496 133.971 24.9996 134.871 24.4996C135.771 23.9996 136.521 23.3996 137.121 22.6996C137.755 21.9663 138.221 21.2829 138.521 20.6496C138.855 19.9829 139.021 19.4996 139.021 19.1996V19.1496C139.188 18.9496 139.355 18.8496 139.521 18.8496C139.855 18.8496 140.021 19.0829 140.021 19.5496C139.855 20.9829 139.338 22.2329 138.471 23.2996C137.638 24.3663 136.621 25.1829 135.421 25.7496C134.221 26.3163 132.955 26.5996 131.621 26.5996C130.688 26.5996 129.788 26.4496 128.921 26.1496C127.088 25.4829 125.705 24.4163 124.771 22.9496C123.838 21.4496 123.371 19.8329 123.371 18.0996C123.371 16.6329 123.688 15.1829 124.321 13.7496C124.955 12.2829 125.921 10.9496 127.221 9.74961C128.521 8.51627 130.138 7.53294 132.071 6.79961C134.005 6.06627 136.271 5.69961 138.871 5.69961C139.305 5.69961 139.655 5.69961 139.921 5.69961C140.188 5.69961 140.638 5.73294 141.271 5.79961C142.838 5.93294 144.421 6.19961 146.021 6.59961C147.621 6.96627 149.155 7.38294 150.621 7.84961C152.088 8.31627 153.421 8.76627 154.621 9.19961C155.821 9.63294 156.821 9.94961 157.621 10.1496C157.855 9.84961 158.188 9.48294 158.621 9.04961C159.088 8.61627 159.588 8.23294 160.121 7.89961C160.688 7.56627 161.221 7.39961 161.721 7.39961C162.388 7.39961 162.721 7.59961 162.721 7.99961C162.721 8.39961 162.488 8.59961 162.021 8.59961C161.555 8.59961 161.021 8.84961 160.421 9.34961C159.855 9.81628 159.421 10.2163 159.121 10.5496C159.921 10.8163 160.905 11.1496 162.071 11.5496C163.238 11.9496 164.488 12.2996 165.821 12.5996C166.755 10.9663 167.771 9.33294 168.871 7.69961C169.971 6.06627 171.155 4.61627 172.421 3.34961C173.688 2.08294 175.005 1.18294 176.371 0.649607C176.871 0.449608 177.388 0.299608 177.921 0.199607C178.488 0.0662735 179.038 -0.000393271 179.571 -0.000393271C180.771 -0.000393271 181.821 0.299607 182.721 0.899607C183.655 1.46627 184.121 2.39961 184.121 3.69961C184.121 5.46627 183.638 7.04961 182.671 8.44961C181.738 9.81628 180.471 10.9663 178.871 11.8996C177.305 12.8329 175.555 13.5163 173.621 13.9496C171.721 14.3496 169.821 14.4663 167.921 14.2996C166.621 16.6663 165.305 19.1496 163.971 21.7496C162.638 24.3163 161.355 26.7996 160.121 29.1996C158.921 31.5996 157.871 33.7163 156.971 35.5496C157.805 34.4496 158.555 33.5496 159.221 32.8496C159.921 32.1163 160.538 31.5329 161.071 31.0996C161.871 30.4329 162.821 29.7329 163.921 28.9996C165.021 28.2329 166.105 27.5996 167.171 27.0996C168.238 26.5663 169.121 26.2996 169.821 26.2996C170.055 26.2996 170.221 26.3163 170.321 26.3496C170.321 26.3496 170.138 26.6829 169.771 27.3496C169.405 28.0163 168.938 28.8663 168.371 29.8996C167.838 30.9329 167.271 32.0496 166.671 33.2496C166.105 34.4496 165.588 35.5996 165.121 36.6996C164.688 37.7663 164.405 38.6496 164.271 39.3496C164.171 39.8496 164.121 40.2663 164.121 40.5996C164.121 41.4996 164.438 41.9829 165.071 42.0496C165.638 42.0829 166.255 41.7829 166.921 41.1496C167.588 40.4829 168.238 39.6663 168.871 38.6996C169.538 37.7329 170.138 36.7496 170.671 35.7496C171.205 34.7496 171.621 33.8996 171.921 33.1996C172.321 33.1996 172.521 33.3496 172.521 33.6496C172.088 34.6496 171.588 35.6996 171.021 36.7996C170.455 37.8663 169.788 38.9163 169.021 39.9496C168.388 40.8163 167.671 41.5496 166.871 42.1496C166.105 42.7496 165.288 43.0496 164.421 43.0496C163.755 43.0496 163.055 42.8163 162.321 42.3496C161.621 41.8829 161.271 41.0163 161.271 39.7496C161.271 39.0496 161.421 38.1996 161.721 37.1996C161.921 36.5329 162.255 35.7663 162.721 34.8996C163.188 34.0329 163.771 33.0329 164.471 31.8996C164.705 31.5329 164.838 31.2496 164.871 31.0496C164.938 30.8496 164.971 30.6829 164.971 30.5496C164.971 30.1496 164.788 29.9496 164.421 29.9496C164.121 29.9496 163.671 30.1163 163.071 30.4496C162.505 30.7829 161.788 31.3663 160.921 32.1996C160.088 32.9996 159.055 34.1829 157.821 35.7496C156.621 37.2829 155.321 39.4163 153.921 42.1496C153.688 42.5829 153.421 42.8163 153.121 42.8496C152.855 42.8496 152.488 42.8663 152.021 42.8996C151.688 42.9329 151.371 42.9496 151.071 42.9496C150.771 42.9829 150.538 43.0829 150.371 43.2496C151.638 40.6496 153.055 37.7329 154.621 34.4996C156.221 31.2663 157.921 27.8829 159.721 24.3496C161.521 20.7829 163.371 17.2163 165.271 13.6496C164.038 13.3496 162.821 13.0163 161.621 12.6496C160.421 12.2496 159.321 11.8996 158.321 11.5996C157.088 13.5996 156.038 15.6496 155.171 17.7496C154.305 19.8496 153.521 21.9496 152.821 24.0496C152.121 26.1496 151.355 28.2329 150.521 30.2996ZM168.521 13.0496C170.021 13.2163 171.605 13.0996 173.271 12.6996C174.938 12.2663 176.505 11.6329 177.971 10.7996C179.438 9.93294 180.621 8.93294 181.521 7.79961C182.455 6.63294 182.921 5.38294 182.921 4.04961C182.921 3.18294 182.655 2.51627 182.121 2.04961C181.588 1.58294 180.938 1.34961 180.171 1.34961C178.971 1.34961 177.738 1.86627 176.471 2.89961C175.205 3.93294 173.905 5.33294 172.571 7.09961C171.271 8.86627 169.921 10.8496 168.521 13.0496ZM178.47 43.0496C177.237 43.0496 176.12 42.6496 175.12 41.8496C174.153 41.0496 173.67 39.8329 173.67 38.1996C173.67 36.8329 173.97 35.3829 174.57 33.8496C175.203 32.3163 176.02 30.8829 177.02 29.5496C178.053 28.1829 179.187 27.0829 180.42 26.2496C181.687 25.3829 182.953 24.9496 184.22 24.9496C184.853 24.9496 185.47 25.1329 186.07 25.4996C186.67 25.8663 186.97 26.4996 186.97 27.3996C186.97 28.2329 186.653 29.1496 186.02 30.1496C185.387 31.1496 184.487 32.0829 183.32 32.9496C182.82 33.3163 182.187 33.6663 181.42 33.9996C180.653 34.3329 179.887 34.6163 179.12 34.8496C178.353 35.0496 177.72 35.1496 177.22 35.1496C177.053 35.5496 176.887 36.0829 176.72 36.7496C176.587 37.4163 176.52 38.0996 176.52 38.7996C176.52 39.6329 176.687 40.3829 177.02 41.0496C177.353 41.7163 177.97 42.0496 178.87 42.0496C179.97 42.0496 180.987 41.7329 181.92 41.0996C182.887 40.4663 183.737 39.6663 184.47 38.6996C185.237 37.7329 185.887 36.7496 186.42 35.7496C186.953 34.7496 187.37 33.8996 187.67 33.1996C188.07 33.1996 188.27 33.3496 188.27 33.6496C187.837 34.5829 187.337 35.5996 186.77 36.6996C186.237 37.7996 185.587 38.8329 184.82 39.7996C184.087 40.7329 183.187 41.5163 182.12 42.1496C181.087 42.7496 179.87 43.0496 178.47 43.0496ZM177.57 34.2496C178.037 34.2496 178.82 34.0829 179.92 33.7496C181.02 33.3829 182.02 32.8163 182.92 32.0496C183.787 31.2829 184.453 30.4496 184.92 29.5496C185.387 28.6163 185.62 27.8329 185.62 27.1996C185.62 26.4663 185.353 26.0996 184.82 26.0996C184.42 26.0996 183.87 26.3663 183.17 26.8996C182.47 27.4329 181.603 28.3329 180.57 29.5996C179.937 30.3996 179.337 31.2663 178.77 32.1996C178.203 33.1329 177.803 33.8163 177.57 34.2496ZM211.603 44.9996C210.236 44.9996 208.936 44.7996 207.703 44.3996C206.469 43.9996 205.453 43.3996 204.653 42.5996C203.886 41.7996 203.503 40.7996 203.503 39.5996C203.503 38.3663 204.036 37.2496 205.103 36.2496C206.203 35.2496 207.753 34.7496 209.753 34.7496C211.853 34.7496 213.836 35.2329 215.703 36.1996C217.603 37.1329 219.603 38.1496 221.703 39.2496C223.469 37.5496 225.036 35.5829 226.403 33.3496C227.803 31.0829 229.136 28.6996 230.403 26.1996C231.703 23.6996 233.036 21.2163 234.403 18.7496C235.769 16.2496 237.303 13.9329 239.003 11.7996C239.303 11.4329 239.603 11.0663 239.903 10.6996C240.203 10.2996 240.519 9.91627 240.853 9.54961C239.053 8.48294 237.119 7.66628 235.053 7.09961C232.986 6.49961 230.853 6.19961 228.653 6.19961C225.919 6.19961 223.386 6.54961 221.053 7.24961C218.719 7.94961 216.686 8.89961 214.953 10.0996C213.253 11.2663 211.919 12.5996 210.953 14.0996C209.986 15.5663 209.503 17.0829 209.503 18.6496C209.503 20.0496 209.786 21.2163 210.353 22.1496C210.953 23.0496 211.703 23.7163 212.603 24.1496C213.503 24.5829 214.386 24.7996 215.253 24.7996C216.419 24.7996 217.419 24.5829 218.253 24.1496C219.086 23.6829 219.769 23.1163 220.303 22.4496C220.836 21.7829 221.236 21.1329 221.503 20.4996C221.769 19.8663 221.919 19.3496 221.953 18.9496C221.953 18.7163 222.103 18.5996 222.403 18.5996C222.869 18.5996 223.053 18.8829 222.953 19.4496C222.786 20.7829 222.286 21.9496 221.453 22.9496C220.619 23.9163 219.619 24.6829 218.453 25.2496C217.286 25.7829 216.086 26.0496 214.853 26.0496C213.386 26.0496 212.053 25.7829 210.853 25.2496C209.653 24.6829 208.686 23.8496 207.953 22.7496C207.253 21.6163 206.903 20.2329 206.903 18.5996C206.903 16.4329 207.486 14.4996 208.653 12.7996C209.819 11.0663 211.419 9.59961 213.453 8.39961C215.486 7.19961 217.819 6.28294 220.453 5.64961C223.086 5.01628 225.869 4.69961 228.803 4.69961C231.069 4.69961 233.353 4.98294 235.653 5.54961C237.953 6.08294 240.136 6.89961 242.203 7.99961C243.069 7.03294 243.953 6.18294 244.853 5.44961C245.786 4.68294 246.736 4.09961 247.703 3.69961C248.136 3.53294 248.486 3.44961 248.753 3.44961C248.953 3.44961 249.053 3.49961 249.053 3.59961C249.053 3.76627 248.669 4.18294 247.903 4.84961C247.469 5.24961 246.953 5.86627 246.353 6.69961C245.753 7.49961 245.136 8.38294 244.503 9.34961C246.503 10.6496 248.269 12.2329 249.803 14.0996C251.369 15.9329 252.603 18.0329 253.503 20.3996C254.403 22.7329 254.853 25.3329 254.853 28.1996C254.853 30.9996 254.369 33.4496 253.403 35.5496C252.436 37.6163 251.119 39.3329 249.453 40.6996C247.786 42.0663 245.869 43.0829 243.703 43.7496C241.536 44.4496 239.253 44.7996 236.853 44.7996C234.019 44.7996 231.386 44.4163 228.953 43.6496C226.553 42.8829 224.319 42.0163 222.253 41.0496C220.619 42.3496 218.919 43.3329 217.153 43.9996C215.419 44.6663 213.569 44.9996 211.603 44.9996ZM241.103 14.6996C240.403 15.7996 239.553 17.1996 238.553 18.8996C237.553 20.5663 236.436 22.3829 235.203 24.3496C233.969 26.3163 232.686 28.2829 231.353 30.2496C230.019 32.2163 228.669 34.0663 227.303 35.7996C225.969 37.4996 224.669 38.9329 223.403 40.0996C225.169 40.9663 227.119 41.7163 229.253 42.3496C231.386 42.9829 233.803 43.2996 236.503 43.2996C239.569 43.2996 242.236 42.6663 244.503 41.3996C246.769 40.0996 248.536 38.3496 249.803 36.1496C251.069 33.9163 251.703 31.3996 251.703 28.5996C251.703 24.9663 250.936 21.6663 249.403 18.6996C247.869 15.6996 245.819 13.1996 243.253 11.1996C242.819 11.8996 242.419 12.5663 242.053 13.1996C241.686 13.7996 241.369 14.2996 241.103 14.6996ZM211.603 43.4496C213.303 43.5496 214.953 43.2496 216.553 42.5496C218.186 41.8163 219.536 41.0329 220.603 40.1996C218.603 39.2329 216.753 38.3496 215.053 37.5496C213.386 36.7496 211.836 36.3496 210.403 36.3496C209.236 36.3496 208.336 36.6996 207.703 37.3996C207.069 38.0663 206.753 38.8163 206.753 39.6496C206.753 40.7163 207.169 41.5996 208.003 42.2996C208.869 42.9996 210.069 43.3829 211.603 43.4496ZM268.679 42.9996C267.912 42.9996 267.229 42.7829 266.629 42.3496C266.062 41.9163 265.779 41.0329 265.779 39.6996C265.779 39.1329 265.812 38.5996 265.879 38.0996C265.979 37.5996 266.096 37.0663 266.229 36.4996C265.929 36.9996 265.512 37.6163 264.979 38.3496C264.446 39.0829 263.846 39.7996 263.179 40.4996C262.546 41.1996 261.879 41.7829 261.179 42.2496C260.512 42.7163 259.879 42.9496 259.279 42.9496C258.412 42.9496 257.712 42.5663 257.179 41.7996C256.646 40.9996 256.379 39.9663 256.379 38.6996C256.379 37.3329 256.696 35.8663 257.329 34.2996C257.962 32.7329 258.829 31.2329 259.929 29.7996C261.029 28.3663 262.296 27.1996 263.729 26.2996C265.162 25.3996 266.662 24.9496 268.229 24.9496C268.996 24.9496 269.729 25.0829 270.429 25.3496C271.129 25.5829 271.746 25.9829 272.279 26.5496C272.512 26.7829 272.629 27.0496 272.629 27.3496C272.629 27.5496 272.546 27.7163 272.379 27.8496C272.212 27.9829 271.996 28.0163 271.729 27.9496C271.362 26.7829 270.579 26.1996 269.379 26.1996C268.812 26.1996 268.162 26.3829 267.429 26.7496C266.529 27.2163 265.562 27.9663 264.529 28.9996C263.529 29.9996 262.579 31.1496 261.679 32.4496C260.812 33.7163 260.096 34.9996 259.529 36.2996C258.962 37.5996 258.679 38.7829 258.679 39.8496C258.679 40.9496 259.096 41.4996 259.929 41.4996C260.662 41.4996 261.412 41.1496 262.179 40.4496C262.979 39.7496 263.729 38.8829 264.429 37.8496C265.162 36.7829 265.829 35.7329 266.429 34.6996C267.029 33.6663 267.496 32.8329 267.829 32.1996C268.329 31.2996 268.796 30.5496 269.229 29.9496C269.662 29.3496 270.279 29.0496 271.079 29.0496C271.446 29.0496 271.812 29.0996 272.179 29.1996C272.546 29.2996 272.929 29.3163 273.329 29.2496C272.329 30.2496 271.446 31.4329 270.679 32.7996C269.946 34.1663 269.379 35.5163 268.979 36.8496C268.579 38.1496 268.379 39.2496 268.379 40.1496C268.379 41.1496 268.712 41.6496 269.379 41.6496C269.912 41.6496 270.479 41.3496 271.079 40.7496C271.712 40.1496 272.312 39.3996 272.879 38.4996C273.479 37.5663 274.029 36.6329 274.529 35.6996C275.029 34.7329 275.429 33.8996 275.729 33.1996C275.896 33.1996 276.029 33.2163 276.129 33.2496C276.262 33.2829 276.329 33.4163 276.329 33.6496C276.296 33.7829 276.229 33.9329 276.129 34.0996C276.062 34.2329 275.946 34.4829 275.779 34.8496C275.512 35.3829 275.146 36.0996 274.679 36.9996C274.212 37.8996 273.662 38.8163 273.029 39.7496C272.396 40.6496 271.712 41.4163 270.979 42.0496C270.246 42.6829 269.479 42.9996 268.679 42.9996ZM286.099 16.4496C285.665 17.0829 285.182 17.8829 284.649 18.8496C284.115 19.8163 283.615 20.7496 283.149 21.6496C282.715 22.5496 282.382 23.2329 282.149 23.6996H286.749C286.749 23.8329 286.682 24.0496 286.549 24.3496C286.449 24.6496 286.232 24.8663 285.899 24.9996H281.549C281.149 25.8996 280.682 26.9829 280.149 28.2496C279.649 29.5163 279.149 30.8329 278.649 32.1996C278.182 33.5663 277.782 34.8496 277.449 36.0496C277.149 37.2163 276.999 38.1663 276.999 38.8996C276.999 39.8996 277.132 40.6496 277.399 41.1496C277.665 41.6163 278.149 41.8496 278.849 41.8496C279.749 41.8496 280.615 41.4163 281.449 40.5496C282.282 39.6496 283.065 38.5329 283.799 37.1996C284.565 35.8663 285.232 34.5329 285.799 33.1996C286.199 33.1996 286.399 33.3496 286.399 33.6496C286.032 34.5496 285.582 35.5329 285.049 36.5996C284.515 37.6663 283.899 38.6996 283.199 39.6996C282.532 40.6663 281.765 41.4663 280.899 42.0996C280.065 42.6996 279.132 42.9996 278.099 42.9996C276.699 42.9996 275.749 42.6163 275.249 41.8496C274.749 41.0496 274.499 40.0329 274.499 38.7996C274.499 37.8996 274.665 36.8163 274.999 35.5496C275.332 34.2496 275.732 32.9163 276.199 31.5496C276.699 30.1829 277.182 28.9163 277.649 27.7496C278.115 26.5496 278.482 25.6329 278.749 24.9996H275.549C275.549 24.7329 275.665 24.4496 275.899 24.1496C276.132 23.8496 276.382 23.6996 276.649 23.6996H279.299C279.565 23.1663 279.865 22.4996 280.199 21.6996C280.565 20.8996 281.049 20.0163 281.649 19.0496C282.149 18.2496 282.782 17.6163 283.549 17.1496C284.349 16.6829 285.199 16.4496 286.099 16.4496ZM289.407 43.0496C288.174 43.0496 287.057 42.6496 286.057 41.8496C285.091 41.0496 284.607 39.8329 284.607 38.1996C284.607 36.8329 284.907 35.3829 285.507 33.8496C286.141 32.3163 286.957 30.8829 287.957 29.5496C288.991 28.1829 290.124 27.0829 291.357 26.2496C292.624 25.3829 293.891 24.9496 295.157 24.9496C295.791 24.9496 296.407 25.1329 297.007 25.4996C297.607 25.8663 297.907 26.4996 297.907 27.3996C297.907 28.2329 297.591 29.1496 296.957 30.1496C296.324 31.1496 295.424 32.0829 294.257 32.9496C293.757 33.3163 293.124 33.6663 292.357 33.9996C291.591 34.3329 290.824 34.6163 290.057 34.8496C289.291 35.0496 288.657 35.1496 288.157 35.1496C287.991 35.5496 287.824 36.0829 287.657 36.7496C287.524 37.4163 287.457 38.0996 287.457 38.7996C287.457 39.6329 287.624 40.3829 287.957 41.0496C288.291 41.7163 288.907 42.0496 289.807 42.0496C290.907 42.0496 291.924 41.7329 292.857 41.0996C293.824 40.4663 294.674 39.6663 295.407 38.6996C296.174 37.7329 296.824 36.7496 297.357 35.7496C297.891 34.7496 298.307 33.8996 298.607 33.1996C299.007 33.1996 299.207 33.3496 299.207 33.6496C298.774 34.5829 298.274 35.5996 297.707 36.6996C297.174 37.7996 296.524 38.8329 295.757 39.7996C295.024 40.7329 294.124 41.5163 293.057 42.1496C292.024 42.7496 290.807 43.0496 289.407 43.0496ZM288.507 34.2496C288.974 34.2496 289.757 34.0829 290.857 33.7496C291.957 33.3829 292.957 32.8163 293.857 32.0496C294.724 31.2829 295.391 30.4496 295.857 29.5496C296.324 28.6163 296.557 27.8329 296.557 27.1996C296.557 26.4663 296.291 26.0996 295.757 26.0996C295.357 26.0996 294.807 26.3663 294.107 26.8996C293.407 27.4329 292.541 28.3329 291.507 29.5996C290.874 30.3996 290.274 31.2663 289.707 32.1996C289.141 33.1329 288.741 33.8163 288.507 34.2496Z" fill="black"/>
</svg>
