<svg width="23" height="27" viewBox="0 0 23 27" fill="none" xmlns="http://www.w3.org/2000/svg">
<path d="M6.60078 26.7992C5.23411 26.7992 4.05078 26.5492 3.05078 26.0492C2.05078 25.5159 1.28411 24.7826 0.750781 23.8492C0.250781 22.9159 0.00078129 21.8326 0.00078129 20.5992C0.00078129 19.1326 0.334115 17.9326 1.00078 16.9992C1.70078 16.0659 2.58411 15.3159 3.65078 14.7492C4.71745 14.1826 5.83411 13.7159 7.00078 13.3492C8.20078 12.9492 9.33411 12.5826 10.4008 12.2492C11.4674 11.8826 12.3341 11.4659 13.0008 10.9992C13.7008 10.5326 14.0508 9.91588 14.0508 9.14922V6.04922C14.0508 4.64922 13.8341 3.58255 13.4008 2.84922C13.0008 2.11588 12.4508 1.63255 11.7508 1.39922C11.0508 1.13255 10.2674 0.999219 9.40078 0.999219C8.56745 0.999219 7.66745 1.11588 6.70078 1.34922C5.76745 1.58255 5.01745 2.06588 4.45078 2.79922C5.08411 2.93255 5.63411 3.26588 6.10078 3.79922C6.56745 4.33255 6.80078 5.01588 6.80078 5.84922C6.80078 6.68255 6.53412 7.34922 6.00078 7.84922C5.46745 8.31588 4.78411 8.54922 3.95078 8.54922C2.98411 8.54922 2.26745 8.24922 1.80078 7.64922C1.36745 7.01588 1.15078 6.31588 1.15078 5.54922C1.15078 4.68255 1.36745 3.98255 1.80078 3.44922C2.23411 2.91588 2.78411 2.41588 3.45078 1.94922C4.21745 1.41588 5.20078 0.965884 6.40078 0.599218C7.63412 0.199217 9.01745 -0.000783443 10.5508 -0.000783443C11.9174 -0.000783443 13.0841 0.165883 14.0508 0.499216C15.0174 0.799216 15.8174 1.24922 16.4508 1.84922C17.3174 2.64922 17.8841 3.63255 18.1508 4.79922C18.4174 5.93255 18.5508 7.29922 18.5508 8.89922V22.7992C18.5508 23.6326 18.6674 24.2326 18.9008 24.5992C19.1674 24.9659 19.5674 25.1492 20.1008 25.1492C20.4674 25.1492 20.8174 25.0659 21.1508 24.8992C21.4841 24.7326 21.8841 24.4659 22.3508 24.0992L22.9008 24.9492C22.2008 25.4826 21.5341 25.9326 20.9008 26.2992C20.2674 26.6326 19.4174 26.7992 18.3508 26.7992C17.3841 26.7992 16.5841 26.6326 15.9508 26.2992C15.3174 25.9659 14.8341 25.4826 14.5008 24.8492C14.2008 24.1826 14.0508 23.3492 14.0508 22.3492C13.1508 23.8492 12.0674 24.9659 10.8008 25.6992C9.56745 26.4326 8.16745 26.7992 6.60078 26.7992ZM8.40078 24.7992C9.50078 24.7992 10.5174 24.4826 11.4508 23.8492C12.4174 23.2159 13.2841 22.2659 14.0508 20.9992V11.1992C13.6508 11.7659 13.0674 12.2492 12.3008 12.6492C11.5341 13.0159 10.7008 13.3992 9.80078 13.7992C8.90078 14.1659 8.03411 14.6159 7.20078 15.1492C6.40078 15.6492 5.73412 16.3159 5.20078 17.1492C4.66745 17.9826 4.40078 19.0659 4.40078 20.3992C4.40078 21.7326 4.75078 22.7992 5.45078 23.5992C6.18411 24.3992 7.16745 24.7992 8.40078 24.7992Z" fill="black"/>
</svg>
