<svg width="32" height="36" viewBox="0 0 32 36" fill="none" xmlns="http://www.w3.org/2000/svg">
<path d="M13.6484 0.00039041C19.6151 0.00039041 24.0484 1.50039 26.9484 4.50039C29.8484 7.46706 31.2984 11.7337 31.2984 17.3004C31.2984 20.9337 30.5818 24.1171 29.1484 26.8504C27.7484 29.5504 25.6984 31.6504 22.9984 33.1504C20.2984 34.6504 17.0318 35.4004 13.1984 35.4004C12.6984 35.4004 12.0318 35.3837 11.1984 35.3504C10.3651 35.3171 9.49844 35.3004 8.59844 35.3004C7.73177 35.2671 6.93177 35.2504 6.19844 35.2504C5.03177 35.2504 3.88177 35.2671 2.74844 35.3004C1.6151 35.3004 0.698438 35.3337 -0.00156234 35.4004V34.4004C1.13177 34.3337 1.98177 34.2004 2.54844 34.0004C3.14844 33.8004 3.54844 33.4004 3.74844 32.8004C3.94844 32.2004 4.04844 31.3004 4.04844 30.1004V5.30039C4.04844 4.06705 3.94844 3.16706 3.74844 2.60039C3.54844 2.00039 3.14844 1.60039 2.54844 1.40039C1.98177 1.16706 1.13177 1.03372 -0.00156234 1.00039V0.00039041C0.698438 0.0337233 1.6151 0.0837227 2.74844 0.150388C3.88177 0.183721 4.99844 0.183721 6.09844 0.150388C7.2651 0.117056 8.58177 0.0837227 10.0484 0.0503898C11.5151 0.0170569 12.7151 0.00039041 13.6484 0.00039041ZM12.3984 0.900388C10.8651 0.900388 9.8651 1.18372 9.39844 1.75039C8.93177 2.31706 8.69844 3.46706 8.69844 5.20039V30.2004C8.69844 31.9337 8.93177 33.0837 9.39844 33.6504C9.89844 34.2171 10.9151 34.5004 12.4484 34.5004C16.0818 34.5004 18.8984 33.8504 20.8984 32.5504C22.8984 31.2171 24.2984 29.2837 25.0984 26.7504C25.8984 24.2171 26.2984 21.1337 26.2984 17.5004C26.2984 13.7671 25.8484 10.6837 24.9484 8.25039C24.0818 5.78372 22.6318 3.95039 20.5984 2.75039C18.5984 1.51705 15.8651 0.900388 12.3984 0.900388Z" fill="black"/>
</svg>
