<svg width="21" height="28" viewBox="0 0 21 28" fill="none" xmlns="http://www.w3.org/2000/svg">
<path d="M11.2992 -0.000783443C14.2326 -0.000783443 16.5159 0.899217 18.1492 2.69922C19.8159 4.46588 20.6492 7.23255 20.6492 10.9992H2.99922L2.94922 10.0492H15.8492C15.9159 8.41589 15.7826 6.91589 15.4492 5.54922C15.1159 4.14922 14.5826 3.03255 13.8492 2.19922C13.1492 1.36588 12.2326 0.949216 11.0992 0.949216C9.56589 0.949216 8.19922 1.71588 6.99922 3.24922C5.83255 4.78255 5.13255 7.21588 4.89922 10.5492L5.04922 10.7492C4.98255 11.2492 4.93255 11.7992 4.89922 12.3992C4.86589 12.9992 4.84922 13.5992 4.84922 14.1992C4.84922 16.4659 5.21589 18.4159 5.94922 20.0492C6.68255 21.6826 7.63255 22.9326 8.79922 23.7992C9.99922 24.6326 11.2326 25.0492 12.4992 25.0492C13.4992 25.0492 14.4492 24.8992 15.3492 24.5992C16.2492 24.2659 17.0826 23.7326 17.8492 22.9992C18.6159 22.2659 19.2826 21.2826 19.8492 20.0492L20.8492 20.4492C20.4826 21.5492 19.8826 22.6159 19.0492 23.6492C18.2159 24.6826 17.1659 25.5326 15.8992 26.1992C14.6326 26.8326 13.1659 27.1492 11.4992 27.1492C9.09922 27.1492 7.03255 26.5992 5.29922 25.4992C3.59922 24.3992 2.28255 22.8826 1.34922 20.9492C0.449219 18.9826 -0.000781059 16.7326 -0.000781059 14.1992C-0.000781059 11.2659 0.465886 8.74922 1.39922 6.64922C2.33255 4.51588 3.64922 2.88255 5.34922 1.74922C7.04922 0.58255 9.03255 -0.000783443 11.2992 -0.000783443Z" fill="black"/>
</svg>
