<svg width="28" height="40" viewBox="0 0 28 40" fill="none" xmlns="http://www.w3.org/2000/svg">
<path d="M8.3 0.000388026V18.7004C9.16667 16.4337 10.3667 14.8671 11.9 14.0004C13.4667 13.1337 15.1 12.7004 16.8 12.7004C18.0667 12.7004 19.1167 12.8671 19.95 13.2004C20.8167 13.5337 21.5333 14.0004 22.1 14.6004C22.7333 15.2671 23.1833 16.1004 23.45 17.1004C23.7167 18.1004 23.85 19.4504 23.85 21.1504V34.5004C23.85 35.9004 24.1333 36.8504 24.7 37.3504C25.3 37.8504 26.2833 38.1004 27.65 38.1004V39.1504C27.0833 39.1171 26.2167 39.0837 25.05 39.0504C23.8833 38.9837 22.75 38.9504 21.65 38.9504C20.55 38.9504 19.4667 38.9837 18.4 39.0504C17.3667 39.0837 16.5833 39.1171 16.05 39.1504V38.1004C17.25 38.1004 18.1 37.8504 18.6 37.3504C19.1 36.8504 19.35 35.9004 19.35 34.5004V20.0504C19.35 19.0171 19.2667 18.0671 19.1 17.2004C18.9333 16.3337 18.55 15.6337 17.95 15.1004C17.3833 14.5671 16.5 14.3004 15.3 14.3004C13.9333 14.3004 12.7167 14.6837 11.65 15.4504C10.6167 16.2171 9.8 17.2837 9.2 18.6504C8.6 20.0171 8.3 21.5837 8.3 23.3504V34.5004C8.3 35.9004 8.55 36.8504 9.05 37.3504C9.55 37.8504 10.4 38.1004 11.6 38.1004V39.1504C11.0667 39.1171 10.2667 39.0837 9.2 39.0504C8.16667 38.9837 7.1 38.9504 6 38.9504C4.9 38.9504 3.76667 38.9837 2.6 39.0504C1.43333 39.0837 0.566667 39.1171 7.07805e-08 39.1504V38.1004C1.36667 38.1004 2.33333 37.8504 2.9 37.3504C3.5 36.8504 3.8 35.9004 3.8 34.5004V6.00039C3.8 4.50039 3.53333 3.40039 3 2.70039C2.46667 1.96706 1.46667 1.60039 7.07805e-08 1.60039V0.55039C1.06667 0.650389 2.1 0.700388 3.1 0.700388C4.06667 0.700388 4.98333 0.650389 5.85 0.55039C6.75 0.417056 7.56667 0.233722 8.3 0.000388026Z" fill="black"/>
</svg>
