<svg width="22" height="37" viewBox="0 0 22 37" fill="none" xmlns="http://www.w3.org/2000/svg">
<path d="M9.65156 -0.000783324C11.3182 -0.000783324 12.5849 0.199217 13.4516 0.599218C14.3182 0.965884 15.0849 1.38255 15.7516 1.84922C16.1516 2.08255 16.4682 2.26588 16.7016 2.39922C16.9682 2.49922 17.2182 2.54922 17.4516 2.54922C17.7849 2.54922 18.0182 2.36588 18.1516 1.99922C18.3182 1.63255 18.4516 1.08255 18.5516 0.349218H19.7016C19.6682 0.915883 19.6182 1.59922 19.5516 2.39922C19.5182 3.16589 19.4849 4.19922 19.4516 5.49922C19.4516 6.76588 19.4516 8.44922 19.4516 10.5492H18.3016C18.2016 8.94922 17.8516 7.41588 17.2516 5.94922C16.6516 4.48255 15.7682 3.28255 14.6016 2.34922C13.4682 1.41588 11.9682 0.949216 10.1016 0.949216C8.3349 0.949216 6.86823 1.48255 5.70156 2.54922C4.56823 3.61588 4.00156 5.01588 4.00156 6.74922C4.00156 8.24922 4.3849 9.51588 5.15156 10.5492C5.91823 11.5492 6.9349 12.4659 8.20156 13.2992C9.50156 14.0992 10.9016 14.9659 12.4016 15.8992C14.1349 16.9659 15.6682 18.0326 17.0016 19.0992C18.3682 20.1326 19.4349 21.2826 20.2016 22.5492C21.0016 23.8159 21.4016 25.3492 21.4016 27.1492C21.4016 29.2826 20.9182 31.0492 19.9516 32.4492C18.9849 33.8492 17.7016 34.8992 16.1016 35.5992C14.5016 36.2992 12.7349 36.6492 10.8016 36.6492C9.0349 36.6492 7.6349 36.4492 6.60156 36.0492C5.56823 35.6492 4.6849 35.2326 3.95156 34.7992C3.21823 34.3326 2.65156 34.0992 2.25156 34.0992C1.91823 34.0992 1.66823 34.2826 1.50156 34.6492C1.36823 35.0159 1.25156 35.5659 1.15156 36.2992H0.00156255C0.0682294 35.5992 0.101563 34.7826 0.101563 33.8492C0.134896 32.8826 0.151562 31.6326 0.151562 30.0992C0.184896 28.5659 0.201563 26.6326 0.201563 24.2992H1.35156C1.4849 26.2992 1.85156 28.1659 2.45156 29.8992C3.0849 31.6326 4.0349 33.0326 5.30156 34.0992C6.60156 35.1326 8.31823 35.6492 10.4516 35.6492C11.5516 35.6492 12.5849 35.4326 13.5516 34.9992C14.5516 34.5326 15.3682 33.8159 16.0016 32.8492C16.6349 31.8492 16.9516 30.5659 16.9516 28.9992C16.9516 27.6326 16.6182 26.4492 15.9516 25.4492C15.3182 24.4159 14.4182 23.4659 13.2516 22.5992C12.0849 21.6992 10.7182 20.7826 9.15156 19.8492C7.5849 18.8826 6.11823 17.8992 4.75156 16.8992C3.3849 15.8992 2.2849 14.7492 1.45156 13.4492C0.651563 12.1159 0.251563 10.5159 0.251563 8.64922C0.251563 6.68255 0.684896 5.06588 1.55156 3.79922C2.45156 2.49922 3.61823 1.54922 5.05156 0.949216C6.4849 0.315883 8.01823 -0.000783324 9.65156 -0.000783324Z" fill="black"/>
</svg>
