<svg width="18" height="35" viewBox="0 0 18 35" fill="none" xmlns="http://www.w3.org/2000/svg">
<path d="M9.30078 0.000778556V8.35078H16.7008V9.35078H9.30078V28.7008C9.30078 30.2674 9.58412 31.3674 10.1508 32.0008C10.7174 32.6341 11.5008 32.9508 12.5008 32.9508C13.5008 32.9508 14.3674 32.5508 15.1008 31.7508C15.8341 30.9174 16.4674 29.5341 17.0008 27.6008L18.0008 27.8508C17.6674 29.7841 17.0008 31.4174 16.0008 32.7508C15.0341 34.0841 13.5341 34.7508 11.5008 34.7508C10.3674 34.7508 9.43411 34.6008 8.70078 34.3008C7.96745 34.0341 7.31745 33.6341 6.75078 33.1008C6.01745 32.3341 5.50078 31.4174 5.20078 30.3508C4.93411 29.2841 4.80078 27.8674 4.80078 26.1008V9.35078H0.000781259V8.35078H4.80078V0.700778C5.63411 0.667446 6.43411 0.60078 7.20078 0.500781C7.96745 0.40078 8.66745 0.234113 9.30078 0.000778556Z" fill="black"/>
</svg>
