<svg width="29" height="36" viewBox="0 0 29 36" fill="none" xmlns="http://www.w3.org/2000/svg">
<path d="M28.1508 0.00039041C28.0174 1.26706 27.9174 2.50039 27.8508 3.70039C27.8174 4.86706 27.8008 5.76706 27.8008 6.40039C27.8008 7.20039 27.8174 7.95039 27.8508 8.65039C27.8841 9.35039 27.9174 9.96706 27.9508 10.5004H26.8008C26.5674 8.16706 26.2508 6.33372 25.8508 5.00039C25.4508 3.63372 24.7508 2.65039 23.7508 2.05039C22.7508 1.45039 21.2008 1.15039 19.1008 1.15039H16.4008V29.6004C16.4008 30.9337 16.5174 31.9337 16.7508 32.6004C17.0174 33.2671 17.5174 33.7171 18.2508 33.9504C18.9841 34.1837 20.0508 34.3337 21.4508 34.4004V35.4004C20.5841 35.3337 19.4841 35.3004 18.1508 35.3004C16.8174 35.2671 15.4674 35.2504 14.1008 35.2504C12.6008 35.2504 11.1841 35.2671 9.85078 35.3004C8.55078 35.3004 7.50078 35.3337 6.70078 35.4004V34.4004C8.10078 34.3337 9.16745 34.1837 9.90078 33.9504C10.6341 33.7171 11.1174 33.2671 11.3508 32.6004C11.6174 31.9337 11.7508 30.9337 11.7508 29.6004V1.15039H9.05078C6.98411 1.15039 5.43411 1.45039 4.40078 2.05039C3.40078 2.65039 2.70078 3.63372 2.30078 5.00039C1.90078 6.33372 1.58411 8.16706 1.35078 10.5004H0.200781C0.267448 9.96706 0.300781 9.35039 0.300781 8.65039C0.334115 7.95039 0.350781 7.20039 0.350781 6.40039C0.350781 5.76706 0.317448 4.86706 0.250781 3.70039C0.217448 2.50039 0.134115 1.26706 0.000781301 0.00039041C1.40078 0.0337233 2.91745 0.0670562 4.55078 0.100389C6.21745 0.133722 7.88411 0.150388 9.55078 0.150388C11.2174 0.150388 12.7341 0.150388 14.1008 0.150388C15.4674 0.150388 16.9674 0.150388 18.6008 0.150388C20.2674 0.150388 21.9341 0.133722 23.6008 0.100389C25.2674 0.0670562 26.7841 0.0337233 28.1508 0.00039041Z" fill="black"/>
</svg>
