<svg width="25" height="26" viewBox="0 0 25 26" fill="none" xmlns="http://www.w3.org/2000/svg">
<path d="M24.4016 -2.26498e-06V0.999998C23.7682 1.06667 23.1849 1.35 22.6516 1.85C22.1182 2.35 21.6182 3.23333 21.1516 4.5L12.9516 26C12.8182 26 12.6849 26 12.5516 26C12.4182 26 12.2682 26 12.1016 26L2.90156 3.85C2.36823 2.55 1.8349 1.76667 1.30156 1.5C0.801563 1.2 0.368229 1.05 0.0015625 1.05V-2.26498e-06C0.668229 0.0333326 1.35156 0.083333 2.05156 0.149999C2.7849 0.183332 3.56823 0.199998 4.40156 0.199998C5.4349 0.199998 6.51823 0.183332 7.65156 0.149999C8.81823 0.116666 9.90156 0.0666655 10.9016 -2.26498e-06V1.05C10.0682 1.05 9.31823 1.11667 8.65156 1.25C8.01823 1.35 7.60156 1.66667 7.40156 2.2C7.2349 2.73333 7.40156 3.65 7.90156 4.95L14.1516 20.4L13.8516 20.65L19.5516 5.7C19.9849 4.6 20.1516 3.73333 20.0516 3.1C19.9849 2.43333 19.6516 1.93333 19.0516 1.6C18.4849 1.26667 17.6016 1.06667 16.4016 0.999998V-2.26498e-06C17.0016 0.0333326 17.5182 0.0666665 17.9516 0.0999994C18.3849 0.0999994 18.8016 0.116666 19.2016 0.149999C19.6349 0.149999 20.1016 0.149999 20.6016 0.149999C21.3682 0.149999 22.0516 0.133332 22.6516 0.0999994C23.2849 0.0666665 23.8682 0.0333326 24.4016 -2.26498e-06Z" fill="black"/>
</svg>
